<svg xmlns="http://www.w3.org/2000/svg" viewBox="0 0 512 512">
  <defs>
    <radialGradient id="sea" cx="50%" cy="38%" r="75%">
      <stop offset="0%" stop-color="#7fd0e0"/>
      <stop offset="60%" stop-color="#2f7d96"/>
      <stop offset="100%" stop-color="#103a5a"/>
    </radialGradient>
  </defs>
  <rect width="512" height="512" rx="96" fill="url(#sea)"/>
  <!-- pesak -->
  <path d="M0 392 Q128 350 256 392 T512 392 L512 512 L0 512 Z" fill="#e6d3a8"/>
  <!-- koral -->
  <g stroke="#e8788f" stroke-width="22" stroke-linecap="round" fill="none">
    <path d="M120 392 L120 300"/><path d="M120 340 L86 300"/><path d="M120 340 L156 296"/>
  </g>
  <g stroke="#f08a3c" stroke-width="18" stroke-linecap="round" fill="none">
    <path d="M150 392 L150 318"/>
  </g>
  <!-- alga -->
  <g stroke="#5f9a3a" stroke-width="16" stroke-linecap="round" fill="none">
    <path d="M408 392 Q392 330 412 280"/><path d="M428 392 Q444 336 426 286"/>
  </g>
  <!-- školjka -->
  <g transform="translate(372 360)">
    <path d="M0 28 L-40 6 Q-44 -30 -18 -34 Q0 -44 18 -34 Q44 -30 40 6 Z" fill="#f2a64c" stroke="#2c2419" stroke-width="6"/>
    <g stroke="#c97f2e" stroke-width="4"><path d="M0 24 L-26 -22"/><path d="M0 24 L0 -30"/><path d="M0 24 L26 -22"/></g>
  </g>
  <!-- mehurići -->
  <g fill="#ffffff" opacity="0.8"><circle cx="300" cy="120" r="14"/><circle cx="340" cy="90" r="8"/><circle cx="200" cy="150" r="6"/></g>
  <!-- 99 -->
  <text x="256" y="210" font-family="system-ui, Arial, sans-serif" font-size="170" font-weight="800"
        text-anchor="middle" fill="#ffd24a" stroke="#103a5a" stroke-width="8" paint-order="stroke">99</text>
</svg>
